<?xml version="1.0" encoding="UTF-8"?>
<svg id="Lag_1" data-name="Lag 1" xmlns="http://www.w3.org/2000/svg" viewBox="0 0 673.48 488.61">
  <defs>
    <style>
      .cls-1 {
        fill: #724c99;
      }

      .cls-2 {
        fill: #f28d2a;
      }
    </style>
  </defs>
  <path class="cls-1" d="M328.11,483.66l-44.7-76.39c-1.65-2.81-5.26-3.75-8.07-2.1l-90.42,53.32c-7.17,4.23-16.06-1.64-15-9.89l9.77-75.69c.5-3.88-2.85-7.16-6.72-6.57l-108.29,16.47c-9.33,1.42-15.25-9.68-8.88-16.64l53.84-58.81c3.1-3.39,1.3-8.86-3.2-9.75l-98.36-19.35c-9.78-1.92-11.03-15.41-1.77-19.1l86.4-34.42c4.41-1.76,5.03-7.74,1.08-10.37l-71.41-47.49c-8.15-5.42-4.46-18.12,5.33-18.32l106.17-2.24c4.3-.09,7.05-4.61,5.16-8.47l-33.45-68.44c-3.91-8.01,3.81-16.75,12.24-13.85l103.28,35.59c3.34,1.15,6.93-.88,7.67-4.33L245.71,7.91c1.64-7.66,11.06-10.54,16.71-5.11l70.24,67.54c2.28,2.19,5.88,2.19,8.16,0L411.05,2.8c5.65-5.43,15.06-2.55,16.71,5.11l16.94,78.92c.74,3.45,4.33,5.48,7.67,4.33l103.28-35.59c8.43-2.9,16.16,5.84,12.24,13.85l-33.45,68.44c-1.89,3.86.87,8.38,5.16,8.47l106.17,2.24c9.79.21,13.48,12.9,5.33,18.32l-71.41,47.49c-3.95,2.63-3.33,8.61,1.08,10.37l86.4,34.42c9.26,3.69,8.01,17.18-1.77,19.1l-98.36,19.35c-4.5.89-6.3,6.36-3.2,9.75l53.84,58.81c6.37,6.96.45,18.06-8.88,16.64l-108.29-16.47c-3.87-.59-7.22,2.69-6.72,6.57l9.77,75.69c1.07,8.25-7.83,14.12-15,9.89l-90.42-53.32c-2.81-1.65-6.42-.71-8.07,2.1l-44.7,76.39c-3.86,6.6-13.4,6.6-17.26,0Z"/>
  <g>
    <path class="cls-2" d="M154.49,175.64c-2.44,6.97-4.84,13.35-7.41,18.98-2.57,5.63-5.14,10.3-7.88,13.95-2.74,3.64-5.56,6.43-8.54,8.37-2.98,1.94-6.05,3-9.23,3.25-2.96.23-5.55-.22-7.73-1.28-2.19-1.06-3.89-2.53-5.08-4.39-1.19-1.86-2.05-4.13-2.49-6.78-.44-2.65-.5-5.35-.17-8.1.33-2.76,1-5.76,2.08-8.98,1.08-3.23,2.35-6.2,3.74-8.95,1.39-2.75,3.02-5.6,4.93-8.55,1.21-1.88,1.83-2.81,3.12-4.65,3.74-5.18,7.89-9.92,12.18-14.39,4.29-4.46,8.29-8.28,11.82-11.53,3.53-3.24,6.91-6.25,10.1-9.02,3.19-2.77,5.87-5.06,8.06-6.82,2.19-1.76,4.09-3.22,5.72-4.32,2.63-1.78,4.42-2.64,5.45-2.51,1.03.14,1.33,1.18.94,3.16-.39,1.98-1.22,4.64-2.48,7.96-1.26,3.33-2.93,7.33-4.97,12.02-1.18,2.46-1.75,3.69-2.86,6.19-.61,1.39-3.24,2.8-7.73,4.31-1.06.36-2.51.81-4.33,1.38-1.82.57-3,.96-3.57,1.17-.1.04-.26.11-.48.22-.22.11-.38.19-.48.22-.51.19-.68-.11-.48-.88.19-.77.59-1.75,1.19-2.95.6-1.2,1.2-2.38,1.79-3.55.59-1.16.96-2.08,1.09-2.74.13-.66-.13-.83-.79-.52-.67.31-1.39.81-2.19,1.5-.79.69-1.65,1.58-2.57,2.69-.92,1.1-1.78,2.2-2.59,3.28-.81,1.08-1.74,2.43-2.77,4.07-1.03,1.64-1.86,3.02-2.5,4.15-.65,1.12-1.48,2.63-2.48,4.51-.99,1.89-1.7,3.29-2.14,4.17-.23.47-.68,1.37-1.32,2.67-.64,1.3-1.13,2.36-1.48,3.17-4.44,10.11-4.42,15.4-1.89,15.02.73-.11,1.55-.84,2.39-2.06.84-1.22,1.57-2.54,2.21-3.96.64-1.41,1.34-2.91,2.12-4.48.78-1.57,1.42-2.66,1.9-3.29,6.79-1.75,10.29-2.59,17.46-4.19.68-.03.79.8.35,2.49Z"/>
    <path class="cls-2" d="M145.9,213.8c3.19-11.66,6.75-22.87,11.12-33.99,5.42-13.77,12.35-27.38,19.56-40.24,5.87-10.46,12.35-20.93,19.11-31.07.7-.94,1.13-1.5,1.3-1.71,1.91-.9,2.87-1.35,4.82-2.22,1.14-.51,2.84-1.3,5.14-2.35,2.29-1.05,4.04-1.8,5.22-2.27,2.01-.81,3.02-1.21,5.06-1.99.3-.12.55-.2.74-.26.19-.05.41-.09.66-.11.24-.02.42.03.51.15.1.11.13.33.1.64-.03.31-.15.72-.35,1.22-9.39,36.16-10.65,72.05-8.15,109.21-.07,1.12-.31,1.91-.73,2.35-.41.44-1.15.68-2.2.73-1.46.07-2.19.1-3.64.17-1.05.05-2.62.15-4.68.31-2.06.15-3.61.26-4.64.31-.31.02-.94.09-1.89.22-.95.13-1.74.2-2.38.2-.64,0-1.35-.04-2.12-.13-.77-.09-1.37-.36-1.81-.79-.44-.43-.69-1.02-.75-1.77.18-2.13.28-3.19.49-5.31.01-2.66-.16-5.07-.51-7.24-.36-2.16-.87-3.2-1.56-3.13-5.15.5-7.69.76-12.7,1.3-1.74,6.56-2.53,9.86-3.92,16.48-.39,1.26-1.82,1.96-4.28,2.12-1.17.07-1.75.11-2.91.19-1.04.07-2.59.25-4.64.54-2.05.29-3.57.47-4.59.54-.4.03-.6.04-.99.07-.38.03-.98.09-1.79.2-.81.11-1.44.17-1.89.21-.15-.38-.38-1.24-.69-2.56ZM178.92,165.97c.04,1.3.06,1.96.12,3.28.93-.17,1.4-.25,2.34-.41,1.89-.33,3.69-.86,5.39-1.61,1.7-.75,2.67-1.65,2.91-2.7,2.02-13.72,4.46-27.19,8.47-40.5-.39.12-1.53,1.84-3.39,5.17-1.86,3.33-3.73,7.06-5.55,11.21-4.46,10.06-6.53,15.19-10.28,25.57Z"/>
    <path class="cls-2" d="M273.33,207.92c-.67,1.34-2.02,2.16-4.05,2.45-2.03.29-4.51.28-7.42,0-2.92-.29-4.46-.42-4.66-.42-1.92.05-3.3.03-4.14-.06-1.69.05-2.53.07-4.21.12-.6-.4-1.04-2.32-1.3-5.75-.25-3.43-.4-8.34-.36-14.67.04-6.33.13-9.64.14-10.04.37-5.67.31-9.33-.26-11.05-.57-1.72-1.84-2.49-3.81-2.31-.7.06-1.06.09-1.76.16-1.59,13.94-2.6,27.9-3.4,41.91-.09.7-.41,1.3-.95,1.78-.55.49-1.31.82-2.29,1-.98.18-1.85.3-2.61.36-.75.06-1.75.07-2.97.06-1.23-.01-1.97-.01-2.25,0-2.35.09-3.52.13-5.86.22-3.29.13-6.51.78-7.42.48-.27-.09-.7-.71-1.05-1.14,2.97-40.11,10.08-78.74,22.5-117,.45-1.32,1.53-2.24,3.24-2.74,9.46-2.86,19.22-5.27,28.92-7.15,5.1-.73,8.54,1.27,10.49,6.08,1.95,4.81,2.25,12.21,1.07,22.14-1.29,10.88-4.92,22.18-12.99,30.05,1.11.67,2.07,1.67,2.89,2.99.82,1.32,1.48,2.77,1.98,4.33.5,1.56.9,3.47,1.19,5.72.3,2.25.51,4.38.64,6.38.12,2,.19,4.38.21,7.16.02,2.78.01,5.2-.03,7.24-.04,2.05-.08,4.5-.1,7.35-.02,2.86-.03,5.13-.02,6.79-.14,3.14-.21,4.71-.33,7.88.05.96.26,2.3.65,4.03.38,1.73.68,3.08.71,3.87.04,1.13-.17,1.81-.4,1.82ZM248.67,118.65c-.62,3.12-1.04,5.47-1.3,6.99-.26,1.53-.49,3.52-.67,5.98-.18,2.47-.1,4.22.24,5.23,1.07-.14,2.12-.51,3.16-1.12,1.03-.61,2.08-1.51,3.14-2.7,1.06-1.19,2.01-2.89,2.86-5.08.85-2.19,1.51-4.75,2-7.68.27-1.64.38-3.07.33-4.26-.06-1.19-.27-2.12-.65-2.77-.38-.65-.78-1.16-1.19-1.52-.41-.36-.96-.57-1.64-.63-.68-.06-1.22-.08-1.62-.06-.4.02-.89.08-1.47.18-.35.06-.52.09-.87.15-.44.43-.82,1.19-1.15,2.29-.33,1.1-.73,2.77-1.17,5.01Z"/>
    <path class="cls-2" d="M286.89,93.53c1.12-8.52,2.22-13.16,3.16-14.23.22.07.54.08.97.02.45-.06.68-.09,1.13-.15.73-.09,1.94-.29,3.64-.59,1.69-.3,2.99-.49,3.87-.58,3.38-.36,6.11-.3,8.17.12,2.06.42,3.18,1.44,3.33,3.04-2.19,28.83-3.81,57.66-4.97,86.55.38,0,.57-.01.95-.02,2.31-.29,3.93-.43,4.85-.42.92.01,2.62.09,5.09.26,2.47.17,4.87.24,7.17.22,1.9-.02,3.3.19,4.22.63.92.44,1.37,1.35,1.36,2.72-.08,11.67-.14,23.35-.18,35.02-.4,2.22-7.17,3.33-20.04,3.45-10.15.08-20.3.22-30.45.42-.64-2.12-.9-5.5-.75-10.14.34-10.27.57-15.34,1.12-25.36.59-10.69,1.33-21.41,2.29-32.05.92-10.23,1.92-20.51,3.08-30.73.14-1.24.41-4,.84-8.2.43-4.2.82-7.5,1.15-9.96Z"/>
    <path class="cls-2" d="M361.44,203.62c-.02-1.4-.03-2.1-.04-3.49-.19-15.14-.43-30.29-.77-45.41-.32-14.36-.79-28.75-1.42-43.11-.53-11.1-1.1-22.19-1.73-33.28,13.95.99,27.78,2.33,41.57,4.74,1.89,9.88,2.77,14.96,4.37,25.36.02.16.09.55.18,1.19.1.64.16,1.06.19,1.27.03.21.08.6.14,1.15s.07.94.04,1.14c-.03.2-.07.5-.13.89s-.15.65-.27.79c-.13.14-.31.27-.54.37-.23.1-.5.14-.81.1-.42-.05-.64-.08-1.06-.13-6.56-.77-12.65-1.57-18.2-2.47.03.87.08,2.21.13,4.04.05,1.83.11,3.45.16,4.85.06,1.41.14,2.78.25,4.11,7.59.54,11.35.87,18.77,1.62.78.08,1.33.35,1.64.82.32.47.53,1.19.65,2.18.03.28.07.71.12,1.31.05.6.09,1.04.12,1.32.31,2.65.81,6.58,1.44,11.86.63,5.28,1.15,9.4,1.29,12.04.06,1.09-.15,1.69-.5,1.66-.16-.01-.31-.13-.44-.37-8.53.31-15.02.44-19.26.23-.43-.02-.65-.03-1.09-.05.3,5.02.43,7.54.69,12.63,2.52.1,6.15.02,10.84-.22,4.68-.23,8.17-.26,10.49-.13,1.82.11,2.93.98,3.33,2.62.2,2.64.29,3.96.47,6.62.19,2.8.49,6.95.84,12.5.35,5.55.56,9.78.67,12.64.12,2.98-.4,4.47-1.54,4.44-1.48-.04-3.76-.12-6.85-.26-3.09-.13-5.46-.21-7.07-.24-4.15-.09-10.11.03-17.96.37-7.85.35-13.62.56-17.19.6-.51-1.19-.77-1.78-1.28-2.97-.14-1.73-.21-2.83-.22-3.32Z"/>
    <path class="cls-2" d="M494.89,182.69c.17.91.45,2.32.83,4.25.38,1.92.71,3.75,1.01,5.5.29,1.75.6,3.7.9,5.85.3,2.15.5,4.1.62,5.83.11,1.74.16,3.38.14,4.91-.02,1.54-.18,2.72-.47,3.54-.29.82-.7,1.22-1.23,1.19-6.86-.39-10.35-.58-17.43-.94-1.38-2.09-2.43-9.79-4.04-22.65-.59-4.68-1.36-10.28-2.43-16.73-1.07-6.45-1.98-10.96-2.53-13.65-.45-2.17-.68-3.25-1.16-5.4-.1-.46-.32-1.35-.65-2.65-.33-1.31-.58-2.31-.72-3.02,1.23,10.64,1.99,21.36,2.52,31.97.48,9.7.44,19.58.02,29.36-.16,1.55-1.32,2.27-3.48,2.17-5.62-.25-8.46-.37-14.19-.6-1.76-.07-2.84-1.09-3.25-3.05-1.97-11.98-4.29-23.9-6.95-35.75-.76-3.59-1.6-7.31-2.52-11.15-.92-3.84-2.01-8.18-3.3-13.01-1.29-4.83-2.28-8.36-2.92-10.64,1.95,13.36,3.7,26.72,5.04,40.15.6,5.95.87,8.95,1.33,15,.52,6.76,1.08,12.17,1.06,15.41,0,1.18-.37,1.9-.81,1.89-1.55-.06-2.33-.08-3.88-.14-1.63-.06-4.02-.11-7.19-.15-3.17-.04-5.6-.08-7.26-.13-1.52-.04-2.3-.6-2.34-1.67-1.94-41.43-6.54-82.26-14.62-122.95-.09-.45-.12-.83-.09-1.13.03-.31.14-.52.32-.66.18-.13.36-.23.54-.29.18-.06.43-.07.74-.03.31.04.57.07.77.08.2.02.46.07.78.16.32.09.53.14.62.16,1.6.33,2.4.5,3.99.85,6.4,1.41,10.85,2.76,13.51,3.82,2.66,1.06,4.66,1.79,6.01,2.17,3.86,9.87,7.51,19.82,10.9,29.87,3.38,10.41,6.53,20.8,9.52,31.33-2.18-19.97-5.23-39.66-10.71-59.02.41.29.65.45.73.48,2.25.73,5.54,1.75,9.77,3.17,4.23,1.42,7.36,2.61,9.49,3.47,1.77.71,2.65,1.08,4.39,1.82.61.36,1.5,1.68,2.62,3.98,11.59,24.72,20.89,50.29,26.01,77.01Z"/>
    <path class="cls-2" d="M505.24,214.12c-.9-10.89-2.16-22.04-4.25-32.47-4.08-20.34-10.72-41.07-19.23-60.04-1.65-3.68-3.14-6.43-3.99-8.15-.39-.78-.58-1.16-.97-1.93-1.04-1.92-1.88-3.46-2.5-4.64-.43-.8-.64-1.44-.64-1.91,3.42,1.94,8.33,4.41,14.45,7.63,1.46.77,2.39,1.23,2.83,1.36,20.19,31.71,32.36,64.48,37.54,101.73-9.03-.67-13.69-.98-23.23-1.57Z"/>
    <path class="cls-2" d="M503.33,126.88c-4.14-6.37-6.41-9.59-6.35-9.95.23.18.5.36.81.55.33.2.5.3.83.5.53.32,1.38.82,2.53,1.49,1.15.68,2.02,1.22,2.64,1.62,2.38,1.53,4.42,2.99,6.2,4.36,1.77,1.36,3.22,2.64,4.35,3.82,15.18,18.4,26.36,36.93,34.98,59.14.27.06.41.09.68.16,1.58.21,2.69.41,3.35.59.65.17,1.87.54,3.63,1.1,1.76.56,3.41,1.03,4.96,1.42,1.27.32,2.27.71,2.99,1.16.73.45,1.27,1.11,1.62,1.99,3.5,8.88,4.84,13.45,6.59,22.78.01,1.43-4.26,1.68-13.44.83-8.81-.82-13.39-1.21-22.85-1.95-.74-1.7-1.34-4.39-1.91-8.01-1.26-8.02-2.09-11.97-4.12-19.75-1.49-5.7-3.87-14.08-8.09-24.71-4.22-10.62-8.22-18.27-11.03-23.37-.52-.94-1.69-3.04-3.63-6.23-1.94-3.19-3.54-5.68-4.74-7.52Z"/>
    <path class="cls-2" d="M135.99,330.72c-26.25-29.57-40.41-60.68-39.21-100.62.16-1.85,2.32-2.91,6.6-3.18.47-.03,1.13-.04,1.99-.04.86,0,1.47,0,1.8-.03,2.2-.13,5.5-.41,10.02-.85,4.52-.43,8.03-.72,10.41-.85,1.64-.09,4.07-.16,7.36-.19,3.29-.04,5.89-.1,7.75-.18.25-.01.62-.06,1.13-.15.5-.09.88-.14,1.13-.15,1.12-.05,1.88.36,2.26,1.23.38.88.5,2.61.4,5.21-.45,11.66-.02,23.35,1.3,34.95-1.78.19-3.63.25-5.56.18-1.93-.06-4.37-.19-7.29-.39-2.92-.19-4.71-.33-5.42-.4-2.46-.23-3.68-.34-6.09-.57.17,1.14.41,2.79.77,4.93.36,2.14.67,3.77.91,4.89.1.5.16.74.27,1.24.11.24.23.66.36,1.25,6.32.02,11.97.25,16.73.85,1.43.18,2.74.55,3.94,1.13,1.2.58,1.88,1.33,2.05,2.22,2.24,10.55,4.6,20.92,8.15,31.14.9,2.66,1.3,4.36,1.14,5.12-.16.76-.74,1-1.77.72-.23-.06-.66-.24-1.3-.52-.64-.28-1.13-.47-1.47-.57-5.43-.85-10.27-1.97-14.64-3.27,1.58,3.33,4.07,8.32,7.92,14.79,3.85,6.46,7.07,11.11,9.22,14.16,2.63,3.71,4,5.54,6.84,9.12,1.11,1.4,1.8,2.27,2.04,2.64.24.37.13.48-.2.31-2.03-1.09-5.18-3.41-9.01-6.19-3.83-2.78-6.65-4.99-8.47-6.53-.7-.59-1.43-1.25-2.16-1.91-.74-.66-1.38-1.24-1.93-1.74-.55-.5-1.27-1.16-2.15-2-.88-.83-1.5-1.43-1.88-1.8-.38-.36-1.07-1.05-2.07-2.06-1-1.01-1.61-1.65-1.86-1.91Z"/>
    <path class="cls-2" d="M265.54,393.09c-2.38-.47-5.43-.92-9.1-1.39-3.67-.47-6.52-1.02-8.63-1.57-7-1.82-10.44-2.82-17.16-4.98-.14-.05-.42-.12-.85-.23-.42-.11-.75-.2-.97-.28-.22-.07-.55-.24-.97-.48-.42-.25-.78-.5-1.06-.75-.28-.25-.6-.61-.96-1.08-.36-.47-.7-1.02-1.02-1.67-.92-2.44-1.38-3.66-2.26-6.14-1.41-3.21-2.91-6.27-4.55-9.14-1.63-2.87-2.86-4.43-3.69-4.66-6.13-1.67-9.14-2.56-15.04-4.42,2.17,7.5,3.41,11.13,6.17,18.14.28,1.22-.84,1.29-3.35.18-1.24-.55-1.86-.83-3.09-1.39-1.1-.5-2.69-1.17-4.72-2.04-2.04-.86-3.57-1.58-4.62-2.12-.41-.21-.62-.32-1.03-.53-.39-.2-.99-.49-1.8-.88-.8-.39-1.43-.71-1.89-.95-.47-.52-1.43-1.64-2.87-3.37-5.38-9.33-8.85-19.25-12.23-29.42-3-10.43-5.19-21.08-6.54-31.84-1.76-14-2.17-28.44-.77-42.24,1.23-12.21,3.49-23.87,6.53-35.96,3.49-.13,5.25-.2,8.8-.32,1.98-.07,4.92-.24,8.86-.52,3.94-.28,6.96-.44,9.01-.51,3.5-.11,5.27-.16,8.82-.27.56-.02,1.26.11,2.1.39,12.16-1.06,25.94-2.84,36.55-1.81.86.08,1.53,1.16,1.72,2.83,1.77,15.35,3.77,30.66,6.36,45.89.04,1.03-.21,1.79-.75,2.29-.54.5-1.18.73-1.93.71-.58-.02-.87-.03-1.45-.05-9.78-.33-18.47-.99-26.16-1.94,1.63,11.33,2.77,17.27,2.95,18.03,10.07.69,15.21,1,25.64,1.55,1.95.1,3.18,1.48,3.7,4.13.1,1.49.16,2.23.27,3.71.72,3.73,2.01,9.25,3.94,16.49,1.93,7.23,3.33,12.63,4.15,16.25.05.45.07.67.12,1.12.08.74-.05,1.1-.41,1.07-.27-.2-.41-.3-.69-.5-10.77.18-18.64-.22-23.96-.9-.53-.07-.8-.1-1.33-.17,1.87,6.32,2.83,9.46,4.81,15.67,2.92.45,7.09.8,12.61.95,5.52.16,9.8.34,12.74.66,2.42.26,4.01,1.43,4.75,3.53,3.63,13.59,7.36,27.15,11.31,40.66.35,2.18.08,3.23-.82,3.16-.03,0-.06,0-.09-.01-1.62-.25-4.15-.68-7.54-1.35-3.39-.66-5.92-1.19-7.59-1.52ZM188.66,318.48c.99,1.97,1.49,2.95,2.5,4.92,1.24.24,1.87.36,3.12.6,2.53.48,4.78.6,6.77.33,1.99-.26,2.84-1.13,2.53-2.57-6.17-20.44-11.1-40.88-14.77-61.9-.62-.02-1.34,2.44-2,7.28-.66,4.84-.97,10.27-.84,16.27.2,11.73,1.06,23.45,2.68,35.08Z"/>
    <path class="cls-2" d="M320.79,404.66c-3.49-.12-7.31-1.44-10.43-2.73-3.12-1.29-6.2-3.27-9.27-5.92-3.08-2.65-5.81-5.92-8.19-9.81-2.38-3.89-4.59-8.8-6.6-14.82-2-6.01-3.61-12.98-4.71-21-.14-1.4.14-2.19.83-2.36.23.17.59.27,1.09.31,2.95.23,7.42.41,13.49.46,6.07.05,10.67.08,13.7.19.77.03,1.39.56,1.87,1.59.48,1.03.89,2.29,1.22,3.77.33,1.47.72,2.95,1.16,4.42.44,1.47,1.14,2.72,2.09,3.75.95,1.03,2.14,1.57,3.58,1.61,1.76.05,3.28-.93,4.6-2.96,1.31-2.03,1.95-4.8,1.89-8.36-.04-2.34-.67-4.51-1.89-6.51-1.23-2-2.84-3.65-4.83-4.96-1.99-1.3-3.89-2.43-5.7-3.36-1.8-.93-3.65-1.76-5.54-2.47-1.89-.71-2.99-1.16-3.29-1.32-7.87-4.21-16.28-11.98-20.56-19.88-5.27-9.7-7.19-21.1-7.54-32.01-.3-9.57.3-18.34,1.91-26.15,1.6-7.8,3.83-14.27,6.62-19.3,2.79-5.02,6.11-9.22,9.96-12.6,3.85-3.37,7.75-5.76,11.69-7.15,3.94-1.39,8.16-1.97,12.27-2.12,9.33-.33,21.63,4.98,27.11,12.96,2.47,5.1,4.27,8.99,5.42,11.64,1.15,2.65,2.25,5.74,3.3,9.25,1.05,3.51,1.78,6.94,2.18,10.31.4,3.36.66,7.48.78,12.33-.88,1.78-1.31,2.67-2.19,4.45-8.16.72-17.43,1.08-27.65,1.05-1.28,0-2.31-.3-3.1-.87-.78-.58-1.31-1.32-1.57-2.22-.26-.91-.53-1.86-.8-2.84-.27-.99-.51-1.94-.74-2.85-.22-.91-.69-1.65-1.39-2.24-.7-.58-1.64-.88-2.8-.88-.32,0-.83.12-1.53.37-.7.24-1.51.63-2.44,1.16-.93.53-1.73,1.35-2.39,2.46-.66,1.11-.99,2.4-.97,3.87.02,1.81.49,3.45,1.4,4.93.91,1.48,1.86,2.55,2.86,3.22,1,.66,2.24,1.39,3.71,2.17,1.47.79,2.39,1.3,2.75,1.55,8.69,4.55,13.89,7.29,15.56,8.35,7.61,4.41,15.1,13.43,18.06,21.6,3.49,9.62,4.05,20.29,3.94,30.29-.08,7.06-.97,13.73-2.07,19.53-1.11,5.8-2.44,10.66-3.98,14.61-1.54,3.95-3.38,7.45-5.5,10.48-2.13,3.04-4.22,5.44-6.32,7.22-2.09,1.78-4.44,3.26-7.03,4.42-2.59,1.17-4.94,1.97-7.07,2.44-2.14.46-4.69,1.02-6.93.94Z"/>
    <path class="cls-2" d="M361.7,259.8c0-1.49.06-3.71.16-6.67.09-2.96.14-4.98.14-6.07,0-.42-.03-1.92-.11-4.52-.08-2.6-.12-4.87-.12-6.8-.01-8.88.35-13.26,1.15-13.26.32,0,.64.19.84.25,8.15,2.56,24.29-.15,36.43-.32,11.61-.16,23.26-.27,34.86-.05,1.89.04,3.09.42,3.61,1.13s.8,2.1.84,4.15c.03,1.33.04,1.99.06,3.32.06,4.12.13,10.25.05,18.27-.08,8.03-.3,14.07-.48,18.2-.18,4.05-.81,6.08-1.83,6.12-2.06.08-5.12.13-9.23.11-4.11-.01-7.24,0-9.34.07-1.96,39.93-6.36,79.31-13.96,118.56-.62,2.05-1.41,3.29-2.22,3.5-.98.25-2.63.45-4.69.74-2.05.29-3.64.5-4.73.67-.06,0-.14.18-.22.23-.65.45-3.29.47-5.77.75-2.48.28-4.36.48-5.59.63-1.14.14-1.71.21-2.86.34-.65.21-1.58.38-2.8.51-.54-1.89-.82-2.85-1.39-4.77,1.72-16.37,3.32-32.77,4.75-49.15,1.53-17.53,2.65-35.15,3.26-52.75.02-.56.04-1.48.06-2.76.02-1.28.05-2.33.07-3.13s.02-1.81,0-3.02c-.02-1.21-.09-2.2-.21-2.96-.12-.77-.26-1.53-.44-2.3-.18-.77-.43-1.33-.75-1.69-.32-.36-.72-.54-1.19-.53-6.69.11-10.06.16-16.85.23-1.1-.64-1.57-6.26-1.5-17.04Z"/>
    <path class="cls-2" d="M425.6,384.9c.4-1.49.6-2.24.99-3.74,4.47-17.34,8.17-35,10.95-52.5,2.96-18.62,5.03-37.71,6.06-56.75.84-16.2,1.13-32.44.63-48.65,20.32.45,40.64.97,60.96,1.69.35,11.7.26,23.02-.29,34.72-.01.21-.05.73-.11,1.57-.06.84-.1,1.39-.13,1.67s-.08.78-.17,1.51c-.09.73-.2,1.24-.3,1.52-.11.28-.26.69-.45,1.22-.2.53-.4.91-.62,1.13-.22.22-.5.43-.85.63-.35.2-.72.31-1.11.34-.55.04-.83.06-1.39.09-8.58.58-16.59.78-23.93.59-.16,1.18-.41,3-.78,5.46s-.7,4.62-.98,6.48c-.28,1.86-.52,3.65-.72,5.39,9.78-.84,14.57-1.3,23.92-2.28.98-.1,1.59.1,1.84.61.24.51.27,1.38.07,2.6-.06.34-.16.88-.32,1.64-.16.75-.27,1.29-.33,1.63-.56,3.25-1.39,8.04-2.69,14.25-1.3,6.21-2.43,10.94-3.35,13.93-.4,1.29-.88,2.01-1.28,2.09-.19.04-.3-.06-.35-.29-10.04,3.07-17.66,4.99-22.57,5.85-.5.09-.76.13-1.26.22-1.32,5.9-2.03,8.81-3.56,14.57,2.79-.59,6.88-1.72,12.2-3.45,5.31-1.72,9.19-2.93,11.7-3.57,1.97-.5,2.79.08,2.47,1.73-1.01,2.83-1.53,4.23-2.61,7.01-1.14,2.93-2.82,7.23-5.25,12.76-2.43,5.54-4.43,9.6-5.83,12.34-1.45,2.85-2.73,4.48-3.77,4.94-1.35.59-3.42,1.46-6.26,2.57-2.84,1.11-5.03,1.93-6.55,2.51-3.9,1.48-9.63,3.76-17.38,6.62-7.74,2.86-13.48,4.64-17.02,5.62-.14-1.1-.21-1.66-.36-2.78.38-1.78.64-2.95.78-3.47Z"/>
    <path class="cls-2" d="M528.69,339.89c-1.43,1.24-2.92,2.51-4.5,3.79-1.58,1.28-3.28,2.6-5.15,3.92-1.87,1.32-2.92,2-3.07,2.1-1.44,1.02-2.46,1.69-3.02,2.04-1.3.88-1.95,1.32-3.28,2.18-.21-.01.7-1.28,2.57-3.9,1.88-2.62,4.64-6.53,7.96-11.94,3.32-5.4,4.83-8.43,5.02-8.79,2.92-5.17,4.26-8.56,4.37-10.02.1-1.46-.87-1.89-2.88-1.25-.72.23-1.08.34-1.8.57-6.63,13.81-13.99,26.42-22.72,39-.49.62-1.1,1.26-1.84,1.92-.74.66-1.56,1.29-2.48,1.9-.92.6-1.71,1.1-2.38,1.5-.67.39-1.51.86-2.55,1.4-1.04.54-1.68.87-1.92,1-2.08,1.12-3.13,1.67-5.25,2.76-3,1.53-6.28,3.66-6.97,3.55-.09-.01-.3-.38-.41-.66,23.94-45.3,34.71-92.34,33.69-143.53-.09-1.94,1.16-2.85,3.74-2.75,13.36.56,26.71,1.14,40.06,1.86,6.59.71,11.76,4.13,15.17,9.97,3.41,5.84,4.87,13.79,3.11,23.81-2.1,11.92-8.77,22.48-17.9,30.3.91.45,1.56,1.2,1.94,2.25.38,1.05.53,2.2.45,3.46-.08,1.26-.42,2.82-1.04,4.65-.62,1.83-1.34,3.54-2.12,5.15-.78,1.6-1.83,3.51-3.19,5.71-1.36,2.2-2.63,4.07-3.78,5.65-1.14,1.58-2.53,3.45-4.23,5.58-1.7,2.13-3.1,3.77-4.14,4.96-2.08,2.32-3.15,3.47-5.36,5.72-.61.64-1.36,1.47-2.3,2.45-.94.98-1.7,1.72-2.24,2.23-.88.82-1.42,1.29-1.58,1.42ZM539.69,266.18c-.52,3.74-.99,6.48-1.28,8.26-.3,1.78-.58,4.09-.92,6.9-.34,2.81-.42,4.75-.14,5.84,1.22-.21,2.44-.69,3.67-1.41,1.22-.72,2.49-1.76,3.79-3.1,1.3-1.34,2.54-3.21,3.66-5.61,1.12-2.4,2-5.21,2.58-8.46.33-1.83.42-3.44.31-4.81-.11-1.37-.43-2.46-.94-3.26-.51-.8-1.04-1.43-1.59-1.91-.55-.48-1.25-.79-2.1-.95-.85-.16-1.53-.25-2.03-.28-.5-.03-1.11-.02-1.83.02-.43.03-.65.04-1.08.07-.49.47-.87,1.37-1.14,2.69-.28,1.33-.57,3.34-.94,6.02Z"/>
  </g>
</svg>